<?xml version="1.0" encoding="UTF-8"?>
<svg xmlns="http://www.w3.org/2000/svg" xmlns:xlink="http://www.w3.org/1999/xlink" width="25px" height="25px" viewBox="0 0 25 24" version="1.1">
<g id="surface1">
<path style=" stroke:none;fill-rule:nonzero;fill:rgb(0%,0%,0%);fill-opacity:1;" d="M 16.808594 0.015625 C 16.753906 0.015625 16.699219 0.0195312 16.648438 0.0234375 C 14.511719 0.390625 13.335938 2.640625 13.164062 4.625 C 12.917969 6.425781 13.714844 8.738281 15.699219 9.140625 C 15.984375 9.195312 16.285156 9.171875 16.566406 9.09375 C 18.957031 8.296875 20.027344 5.476562 19.679688 3.144531 C 19.582031 1.636719 18.4375 -0.00390625 16.808594 0.015625 Z M 7.75 0.113281 C 6.417969 0.144531 5.386719 1.488281 5.175781 2.746094 C 4.730469 5.246094 5.871094 8.351562 8.488281 9.140625 C 8.730469 9.195312 8.984375 9.199219 9.230469 9.160156 C 11 8.867188 11.746094 6.894531 11.675781 5.304688 C 11.621094 3.203125 10.523438 0.773438 8.332031 0.183594 C 8.132812 0.128906 7.9375 0.109375 7.75 0.113281 Z M 22.597656 7.210938 C 20.296875 7.347656 18.722656 9.628906 18.496094 11.761719 C 18.195312 13.300781 19.015625 15.355469 20.78125 15.480469 C 23.234375 15.449219 24.914062 12.835938 24.980469 10.585938 C 25.136719 9.097656 24.257812 7.292969 22.597656 7.210938 Z M 2.480469 7.714844 C 1.5 7.707031 0.539062 8.292969 0.21875 9.28125 C -0.632812 11.929688 1.078125 15.28125 3.894531 15.835938 C 5.070312 16.039062 6.101562 15.140625 6.394531 14.058594 C 7.011719 11.746094 5.742188 9.058594 3.597656 8.007812 C 3.246094 7.8125 2.863281 7.71875 2.480469 7.714844 Z M 12.78125 12.464844 C 10.867188 12.46875 8.917969 13.4375 7.675781 14.878906 C 6.335938 16.558594 5.238281 18.515625 4.808594 20.632812 C 4.285156 22.160156 5.46875 23.917969 7.109375 23.929688 C 9.082031 23.984375 10.777344 22.632812 12.734375 22.535156 C 14.398438 22.28125 15.890625 23.144531 17.386719 23.707031 C 18.660156 24.25 20.417969 24.042969 21.066406 22.675781 C 21.578125 21.285156 20.828125 19.804688 20.203125 18.570312 C 18.929688 16.5625 17.570312 14.457031 15.484375 13.207031 C 14.648438 12.691406 13.71875 12.460938 12.78125 12.464844 Z M 12.78125 12.464844 "/>
</g>
</svg>
